<mxfile host="app.diagrams.net" modified="2023-06-13T12:02:57.020Z" agent="Mozilla/5.0 (Macintosh; Intel Mac OS X 10_15_7) AppleWebKit/537.36 (KHTML, like Gecko) Chrome/114.0.0.0 Safari/537.36" version="21.3.8" etag="FyXQhsoadfYI3rNH4ZLZ" type="github">
  <diagram name="Strona-1" id="kjZXltilU13hwahVvTvc">
    <mxGraphModel>
      <root>
        <mxCell id="0" />
        <mxCell id="1" parent="0" />
      </root>
    </mxGraphModel>
  </diagram>
</mxfile>
